# xmcd CD database file
#
# Track frame offsets:
#	150
#	14925
#	29831
#	41002
#	52488
#	82596
#	96456
#	121986
#	155097
#	172934
#	200842
#	211848
#	236549
#	248745
#	264603
#	275764
#	292806
#
# Disc length: 4125 seconds
#
# Revision: 0
# Processed by: cddbd v1.5.1PL0 Copyright (c) Steve Scherf et al.
# Submitted via: CDex 1.51
#
DISCID=03101b11
DTITLE=Jazz Radio 101.9 - Jazz over New York
DYEAR=2004
DGENRE=Jazz
TTITLE0=Frank Sinatra - Autumn In Ne York
TTITLE1=Tony Bennett - Manhattan
TTITLE2=Dave Brubeck - Theme From "Mr. Broadway"
TTITLE3=Mel Torme - Sunday In New York
TTITLE4=Carmen McCrae - New York State Of Mind
TTITLE5=Billie Holiday - On The Sunny Side Of The Street
TTITLE6=Cannonball Adderley - The Sidewalks Of New York
TTITLE7=McCoy Tyner Big Band - Uptown
TTITLE8=Oscar Peterson - There's A Boat That's Leavin' For NY
TTITLE9=Modern Jazz Quartet - Skating In Central Park
TTITLE10=Lou Rawls - On Broadway
TTITLE11=Milt Jackson - Take The "A" Train
TTITLE12=Mel Torme - The Brooklyn Bridge
TTITLE13=Charlie Parker - Autumn In N.Y. part2
TTITLE14=Dave Brubeck - Spring In Central Park
TTITLE15=Teddy Wilson - Stompin' At The Savoy
TTITLE16=Frank Sinatra - New York, New York
EXTD=YEAR: 2004
EXTT0=
EXTT1=
EXTT2=
EXTT3=
EXTT4=
EXTT5=
EXTT6=
EXTT7=
EXTT8=
EXTT9=
EXTT10=
EXTT11=
EXTT12=
EXTT13=
EXTT14=
EXTT15=
EXTT16=
PLAYORDER=
